<svg width="46" height="32" viewBox="0 0 46 32" fill="none" xmlns="http://www.w3.org/2000/svg">
<rect x="0.5" y="0.5" width="45" height="31" rx="5.5" fill="white"/>
<rect x="0.5" y="0.5" width="45" height="31" rx="5.5" stroke="#EFEFEF"/>
<g clip-path="url(#clip0_2263_3083)">
<path d="M29.0003 16.0003C29.0003 12.6866 26.314 10.0003 23.0003 10.0003C19.6866 10.0003 17.0003 12.6866 17.0003 16.0003C17.0003 19.314 19.6866 22.0003 23.0003 22.0003C26.314 22.0003 29.0003 19.314 29.0003 16.0003ZM22.3337 12.0003C22.3337 11.6321 22.6321 11.3337 23.0003 11.3337C23.3685 11.3337 23.667 11.6321 23.667 12.0003V15.5882L25.9652 16.7373C26.2945 16.902 26.428 17.3025 26.2633 17.6318C26.0987 17.9612 25.6981 18.0947 25.3688 17.93L22.7021 16.5967C22.4763 16.4838 22.3337 16.2528 22.3337 16.0003V12.0003ZM30.3337 16.0003C30.3337 20.0504 27.0504 23.3337 23.0003 23.3337C18.9502 23.3337 15.667 20.0504 15.667 16.0003C15.667 11.9502 18.9502 8.66699 23.0003 8.66699C27.0504 8.66699 30.3337 11.9502 30.3337 16.0003Z" fill="#6B6E70"/>
</g>
<defs>
<clipPath id="clip0_2263_3083">
<rect width="16" height="16" fill="white" transform="translate(15 8)"/>
</clipPath>
</defs>
</svg>
