<svg width="58" height="40" viewBox="0 0 58 40" fill="none" xmlns="http://www.w3.org/2000/svg">
<rect x="0.5" y="0.5" width="57" height="39" rx="5.5" fill="white"/>
<rect x="0.5" y="0.5" width="57" height="39" rx="5.5" stroke="#EFEFEF"/>
<path d="M14.7993 14.6638H6.86927C5.83654 14.6638 5 15.5081 5 16.5485V24.5458C5 25.5862 5.83654 26.4305 6.86927 26.4305H14.7993C15.8321 26.4305 16.6675 25.5862 16.6675 24.5458V16.5485C16.6686 15.507 15.8321 14.6638 14.7993 14.6638Z" fill="#1677FF"/>
<path d="M14.6062 22.0527C14.14 21.8951 13.5129 21.6537 12.8152 21.3991C13.234 20.664 13.5691 19.8275 13.7895 18.9182H11.4893V18.0827H14.3064V17.6165H11.4893V16.2234H10.3398C10.1381 16.2234 10.1381 16.424 10.1381 16.424V17.6154H7.28898V18.0816H10.1381V18.9171H7.78495V19.3833H12.3479C12.1815 19.963 11.9566 20.5086 11.691 21.0035C10.2108 20.5108 8.63031 20.1118 7.63837 20.3576C7.00352 20.5152 6.59462 20.7963 6.35435 21.0916C5.25219 22.444 6.04243 24.4984 8.3702 24.4984C9.7468 24.4984 11.0727 23.7247 12.0999 22.4495C13.633 23.1924 16.6673 24.4687 16.6673 24.4687V22.6501C16.6684 22.6501 16.287 22.6192 14.6062 22.0527ZM8.15307 23.7126C6.33781 23.7126 5.80106 22.271 6.69822 21.4818C6.99801 21.2151 7.54468 21.085 7.83565 21.0564C8.91357 20.9495 9.91213 21.3639 11.0903 21.9436C10.2626 23.0325 9.20784 23.7126 8.15307 23.7126Z" fill="white"/>
<path d="M30.3354 16.3866C30.3354 16.995 30.7807 17.405 31.4012 17.405C32.0218 17.405 32.467 16.995 32.467 16.3866C32.467 15.7892 32.0218 15.3682 31.4012 15.3682C30.7807 15.3682 30.3354 15.7892 30.3354 16.3866Z" fill="#1677FF"/>
<path d="M29.2112 15.6249H27.3618V24.171H29.2112V15.6249Z" fill="black"/>
<path d="M24.119 15.9181H21.6369L18.8628 24.1722H20.5722L21.0407 22.5564H23.979L24.4243 24.1722H26.6132L24.119 15.9181ZM21.4264 21.2096L22.5264 17.4049H22.5727L23.6142 21.2096H21.4264Z" fill="black"/>
<path d="M32.326 17.8965H30.4766V24.1722H32.326V17.8965Z" fill="black"/>
<path d="M51.6556 17.9086L51.6666 17.8965H49.923L48.8219 21.7133H48.7635L47.4993 17.8965H45.4272L47.9203 24.1953L46.8788 26.1153V26.1616H48.5056L51.6556 17.9086Z" fill="black"/>
<path d="M36.9275 17.7676C36.2485 17.7676 35.7217 18.0255 35.1243 18.517V17.8965H33.2749V26.1616H35.1243V24.1127C35.4759 24.2064 35.8033 24.2538 36.2011 24.2538C37.8522 24.2538 39.339 23.0359 39.339 20.8702C39.339 18.9271 38.2622 17.7676 36.9275 17.7676ZM35.7559 23.0943C35.5454 23.0943 35.3459 23.0712 35.1232 23.0006V19.606C35.5101 19.3371 35.8253 19.2081 36.2232 19.2081C36.9142 19.2081 37.4642 19.7581 37.4642 20.9297C37.4653 22.4275 36.6574 23.0943 35.7559 23.0943Z" fill="black"/>
<path d="M45.0635 22.6028V19.9807C45.0635 18.5523 44.2204 17.7676 42.7336 17.7676C41.7846 17.7676 41.1299 17.9318 39.9352 18.2944L40.2625 19.7349C41.3514 19.2434 41.8309 19.0329 42.3346 19.0329C42.943 19.0329 43.213 19.466 43.213 20.1339V20.1802C41.0935 20.5781 40.4378 20.8007 40.0289 21.2107C39.7247 21.5149 39.5957 21.9481 39.5957 22.4518C39.5957 23.6575 40.5325 24.3012 41.4099 24.3012C42.0657 24.3012 42.5925 24.0554 43.3067 23.5165L43.4356 24.1722H45.2851L45.0635 22.6028ZM43.2141 22.6502C42.7225 22.9191 42.4415 23.0249 42.1141 23.0249C41.6689 23.0249 41.3878 22.7317 41.3878 22.2644C41.3878 22.0892 41.4231 21.9128 41.5631 21.7728C41.7857 21.5502 42.2189 21.386 43.2141 21.1523V22.6502Z" fill="black"/>
</svg>
