<svg width="34" height="24" viewBox="0 0 34 24" fill="none" xmlns="http://www.w3.org/2000/svg">
<rect x="0.5" y="0.5" width="33" height="23" rx="3.5" fill="white"/>
<rect x="0.5" y="0.5" width="33" height="23" rx="3.5" stroke="#EFEFEF"/>
<path d="M8.8796 8.79834H4.12156C3.50193 8.79834 3 9.30489 3 9.92916V14.7275C3 15.3518 3.50193 15.8584 4.12156 15.8584H8.8796C9.49923 15.8584 10.0005 15.3518 10.0005 14.7275V9.92916C10.0012 9.30423 9.49923 8.79834 8.8796 8.79834Z" fill="#1677FF"/>
<path d="M8.76404 13.2317C8.48431 13.1372 8.10803 12.9923 7.68943 12.8396C7.94072 12.3985 8.14175 11.8966 8.27401 11.351H6.89389V10.8497H8.58416V10.57H6.89389V9.73413H6.20415C6.08314 9.73413 6.08314 9.85449 6.08314 9.85449V10.5693H4.37368V10.8491H6.08314V11.3503H4.67127V11.6301H7.40904C7.30918 11.9779 7.17428 12.3053 7.0149 12.6022C6.12678 12.3066 5.17848 12.0672 4.58331 12.2147C4.20241 12.3092 3.95706 12.4779 3.8129 12.6551C3.1516 13.4665 3.62575 14.6992 5.02241 14.6992C5.84837 14.6992 6.64392 14.2349 7.26024 13.4698C8.18011 13.9155 10.0007 14.6813 10.0007 14.6813V13.5902C10.0013 13.5902 9.77251 13.5716 8.76404 13.2317ZM4.89214 14.2276C3.80298 14.2276 3.48093 13.3627 4.01923 12.8892C4.1991 12.7291 4.5271 12.6511 4.70169 12.6339C5.34843 12.5698 5.94757 12.8184 6.6545 13.1663C6.15786 13.8196 5.525 14.2276 4.89214 14.2276Z" fill="white"/>
<path d="M18.2012 9.83199C18.2012 10.197 18.4683 10.443 18.8406 10.443C19.213 10.443 19.4801 10.197 19.4801 9.83199C19.4801 9.47356 19.213 9.22095 18.8406 9.22095C18.4683 9.22095 18.2012 9.47356 18.2012 9.83199Z" fill="#1677FF"/>
<path d="M17.5267 9.375H16.417V14.5027H17.5267V9.375Z" fill="black"/>
<path d="M14.4716 9.5509H12.9824L11.3179 14.5034H12.3435L12.6246 13.5339H14.3876L14.6548 14.5034H15.9681L14.4716 9.5509ZM12.856 12.7258L13.516 10.443H13.5438L14.1687 12.7258H12.856Z" fill="black"/>
<path d="M19.3953 10.7379H18.2856V14.5033H19.3953V10.7379Z" fill="black"/>
<path d="M30.9933 10.7452L31 10.7379H29.9538L29.2931 13.028H29.2581L28.4996 10.7379H27.2563L28.7522 14.5172L28.1273 15.6692V15.697H29.1034L30.9933 10.7452Z" fill="black"/>
<path d="M22.1564 10.6605C21.749 10.6605 21.4329 10.8153 21.0745 11.1102V10.7379H19.9648V15.697H21.0745V14.4676C21.2855 14.5238 21.4819 14.5523 21.7206 14.5523C22.7112 14.5523 23.6033 13.8215 23.6033 12.5221C23.6033 11.3562 22.9572 10.6605 22.1564 10.6605ZM21.4534 13.8566C21.3271 13.8566 21.2074 13.8427 21.0738 13.8004V11.7636C21.306 11.6022 21.4951 11.5248 21.7338 11.5248C22.1484 11.5248 22.4784 11.8548 22.4784 12.5578C22.4791 13.4565 21.9944 13.8566 21.4534 13.8566Z" fill="black"/>
<path d="M27.038 13.5616V11.9884C27.038 11.1314 26.5321 10.6605 25.64 10.6605C25.0707 10.6605 24.6779 10.7591 23.961 10.9766L24.1574 11.8409C24.8108 11.546 25.0984 11.4197 25.4007 11.4197C25.7657 11.4197 25.9277 11.6796 25.9277 12.0803V12.1081C24.656 12.3468 24.2626 12.4804 24.0172 12.7264C23.8347 12.9089 23.7573 13.1688 23.7573 13.471C23.7573 14.1945 24.3194 14.5807 24.8458 14.5807C25.2393 14.5807 25.5554 14.4332 25.9839 14.1098L26.0613 14.5033H27.1709L27.038 13.5616ZM25.9284 13.5901C25.6334 13.7514 25.4648 13.8149 25.2684 13.8149C25.0012 13.8149 24.8326 13.639 24.8326 13.3586C24.8326 13.2535 24.8538 13.1477 24.9377 13.0637C25.0713 12.9301 25.3312 12.8316 25.9284 12.6914V13.5901Z" fill="black"/>
</svg>
