<svg width="46" height="32" viewBox="0 0 46 32" fill="none" xmlns="http://www.w3.org/2000/svg">
<rect x="0.5" y="0.5" width="45" height="31" rx="3.5" fill="white"/>
<rect x="0.5" y="0.5" width="45" height="31" rx="3.5" stroke="#EFEFEF"/>
<path d="M5.83887 14.4106C5.52579 14.4106 5.49491 14.3089 5.49491 13.5679V13.4415C5.49491 12.698 5.52579 12.5973 5.83887 12.5973H12.9981C13.3122 12.5973 13.3431 12.698 13.3431 13.4405V13.5669C13.3431 14.3089 13.3117 14.4101 12.9981 14.4101H5.83887V14.4106ZM5.83887 11.1477C5.52579 11.1477 5.49491 11.0465 5.49491 10.3045V10.1781C5.49491 9.43352 5.52579 9.33337 5.83887 9.33337H12.9981C13.3122 9.33337 13.3431 9.43453 13.3431 10.1781V10.3045C13.3431 11.0465 13.3117 11.1477 12.9981 11.1477H5.83887ZM6.91137 20.8378C6.91137 19.6097 7.55216 18.9345 8.51633 18.9345C8.88033 18.9345 9.17175 19.0336 9.53629 19.203C9.66846 19.2658 9.77787 19.2405 9.9512 18.8566L10.0774 18.5956C10.202 18.281 10.2112 18.151 10.0601 18.0812C9.6132 17.8369 8.9215 17.6826 8.32404 17.6826C6.62158 17.6826 5.3335 18.942 5.3335 20.8378C5.3335 22.733 6.62158 23.9925 8.3235 23.9925C8.9215 23.9925 9.62891 23.8387 10.0774 23.5929C10.2269 23.5246 10.2172 23.3931 10.0937 23.0785L9.96908 22.8028C9.79575 22.4184 9.68579 22.3967 9.55254 22.4563C9.188 22.6268 8.88087 22.7259 8.51633 22.7259C7.55216 22.7259 6.913 22.0654 6.913 20.8378H6.91191H6.91137ZM27.1968 23.7021C27.1968 23.869 27.1296 23.9146 26.6242 23.9146H26.5739C26.0414 23.9146 25.9672 23.8918 25.9255 23.7699C25.8976 23.6872 25.8753 23.6029 25.8589 23.5175C25.5772 23.8321 25.2376 24 24.7203 24C23.4658 24 22.7118 23.1402 22.7118 21.7573C22.7118 20.2627 23.5508 19.3775 24.795 19.3775C25.1455 19.3775 25.4683 19.4787 25.7175 19.6628V17.7205C25.7175 17.5905 25.7337 17.5364 26.4325 17.5364H26.4829C27.1296 17.5364 27.1962 17.5905 27.1962 17.7205V23.7021H27.1968ZM25.718 20.7533C25.6326 20.6661 25.5287 20.5965 25.4128 20.549C25.297 20.5014 25.1718 20.477 25.0453 20.4771C24.4885 20.4771 24.2241 20.9288 24.2241 21.7583C24.2241 22.2338 24.3319 22.5358 24.4885 22.6941C24.6293 22.8574 24.846 22.91 25.0545 22.91C25.3118 22.91 25.5106 22.8509 25.6027 22.7411C25.6845 22.6571 25.7175 22.5272 25.7175 22.2277V20.7528L25.7186 20.7533H25.718ZM34.7346 23.7325C34.7346 23.8615 34.668 23.9146 34.0196 23.9146H33.9698C33.2721 23.9146 33.2575 23.8615 33.2575 23.7325V17.7205C33.2575 17.5905 33.2721 17.5364 33.9692 17.5364H34.0191C34.6669 17.5364 34.7341 17.5905 34.7341 17.7205V23.7325H34.7346ZM29.5325 22.1341C29.6148 22.6789 29.9799 22.9409 30.5535 22.9409C30.995 22.9409 31.4082 22.8499 31.8914 22.6571C31.9922 22.6192 32.0826 22.6571 32.1893 22.9621L32.2652 23.1331C32.3719 23.4477 32.3627 23.5175 32.2478 23.5777C31.6737 23.8766 31.0762 23.999 30.4116 23.999C28.9426 23.999 28.0212 23.1645 28.0212 21.7356C28.0212 20.3461 28.8678 19.3775 30.3211 19.3775C31.7587 19.3775 32.4965 20.3305 32.4965 21.6506C32.4965 22.0886 32.4558 22.1341 32.2895 22.1341H29.5325ZM31.0177 21.2829C30.995 20.8236 30.7956 20.423 30.3054 20.423C29.8802 20.423 29.5725 20.7214 29.5146 21.2829H31.0177ZM37.0356 22.1341C37.1169 22.6789 37.483 22.9409 38.0572 22.9409C38.4949 22.9409 38.912 22.8499 39.3935 22.6571C39.4921 22.6192 39.5852 22.6571 39.6925 22.9621L39.7678 23.1331C39.8745 23.4477 39.8658 23.5175 39.7515 23.5777C39.1774 23.8766 38.5788 23.999 37.9137 23.999C36.4441 23.999 35.5238 23.1645 35.5238 21.7356C35.5238 20.3461 36.3688 19.3775 37.8227 19.3775C39.2613 19.3775 40.0002 20.3305 40.0002 21.6506C40.0002 22.0886 39.9585 22.1341 39.7922 22.1341H37.0351H37.0356ZM38.5225 21.2829C38.4954 20.8236 38.2977 20.423 37.8075 20.423C37.3839 20.423 37.0752 20.7214 37.0177 21.2829H38.5225ZM20.348 20.7837C20.2731 20.6914 20.1765 20.6165 20.0657 20.5648C19.9548 20.513 19.8327 20.4858 19.7088 20.4852C19.152 20.4852 18.8871 20.9379 18.8871 21.7432C18.8871 22.426 19.0842 22.9333 19.6909 22.9333C19.9162 22.9333 20.0809 22.8797 20.1985 22.7709C20.3057 22.6647 20.348 22.518 20.348 22.1974V20.7837ZM21.843 23.7021C21.843 23.869 21.7774 23.9146 21.271 23.9146H21.2027C20.6719 23.9146 20.5971 23.8918 20.556 23.7699C20.5275 23.6873 20.5052 23.603 20.4893 23.5175C20.2077 23.8321 19.8664 24 19.3507 24C18.1466 24 17.3737 23.1543 17.3737 21.7745C17.3737 20.2394 18.3292 19.3775 19.4591 19.3775C19.9162 19.3775 20.3138 19.5556 20.5305 19.8085L20.556 19.6163C20.563 19.5252 20.5895 19.4645 21.1355 19.4645H21.1946C21.7601 19.4645 21.8419 19.5015 21.8419 19.6416V23.7021H21.843ZM14.9102 18.1672C15.4659 18.1672 15.4995 18.1737 15.4995 18.3427V19.4635H16.4555C16.5877 19.4635 16.6289 19.4863 16.6289 19.9081V19.9703C16.6289 20.3912 16.5877 20.4154 16.4555 20.4154H15.4995V22.427C15.4995 22.7639 15.565 22.9409 15.8971 22.9409C16.0704 22.9409 16.2221 22.91 16.3716 22.865C16.5287 22.8089 16.5882 22.8797 16.6955 23.2317L16.7204 23.3162C16.8363 23.7021 16.8022 23.7325 16.6543 23.8002C16.3553 23.9307 15.9556 24 15.5824 24C14.4032 24 14.0711 23.4477 14.0711 22.4867V20.4154H13.5143C13.3735 20.4154 13.3382 20.3902 13.3382 19.9703V19.9081C13.3382 19.4863 13.3729 19.4645 13.5143 19.4645H14.1372C14.2049 19.1039 14.3197 18.5961 14.395 18.3427C14.4367 18.1965 14.4617 18.1672 14.9102 18.1672ZM11.8205 19.4645C12.4689 19.4645 12.5263 19.5166 12.5263 19.6481V23.7325C12.5263 23.869 12.4689 23.9146 11.8205 23.9146H11.7782C11.0649 23.9146 11.0486 23.869 11.0486 23.7325V19.6481C11.0486 19.5166 11.0649 19.4645 11.7782 19.4645H11.8205ZM11.7782 17.4681C12.2462 17.4681 12.5853 17.8055 12.5853 18.1889C12.5832 18.285 12.5607 18.3797 12.5191 18.4676C12.4774 18.5555 12.4174 18.6347 12.3427 18.7008C12.191 18.8348 11.9879 18.9077 11.7782 18.9031C11.3157 18.9031 10.9728 18.5657 10.9728 18.1889C10.9728 17.8045 11.3157 17.4681 11.7782 17.4681Z" fill="#EE293D"/>
</svg>
