<svg width="34" height="24" viewBox="0 0 34 24" fill="none" xmlns="http://www.w3.org/2000/svg">
<rect x="0.5" y="0.5" width="33" height="23" rx="3.5" fill="white"/>
<rect x="0.5" y="0.5" width="33" height="23" rx="3.5" stroke="#EFEFEF"/>
<path fill-rule="evenodd" clip-rule="evenodd" d="M6.9359 13.7668C6.74995 13.873 6.55197 13.926 6.34209 13.926H6.18013C6.13806 13.926 6.07798 13.9224 5.90446 13.8908L6.49114 11.3212C6.59907 11.2213 6.71549 11.1565 6.85047 11.1252C6.98545 11.094 7.07237 11.0856 7.15645 11.0856C7.41424 11.0856 7.61371 11.1626 7.70975 11.3313C7.80565 11.4998 7.8537 11.734 7.8537 12.0338C7.8537 12.2774 7.81462 12.5116 7.73673 12.7364C7.65871 12.9612 7.55227 13.1626 7.41736 13.3406C7.28238 13.5185 7.12178 13.6607 6.9359 13.7668ZM8.25863 10.0761C8.04855 9.96993 7.79973 9.91679 7.51177 9.91679C7.37373 9.91679 7.2448 9.93243 7.12491 9.96363C7.00482 9.99498 6.89172 10.0354 6.77183 10.0916L7.32289 7.67798L5.92818 7.90277L4.37158 14.7129C4.5455 14.8004 4.72989 14.869 4.92495 14.9189C5.11981 14.9689 5.30427 15.0063 5.47826 15.0314C5.65218 15.0563 5.80673 15.0703 5.94171 15.0735C6.07669 15.0766 6.17116 15.0782 6.22512 15.0782C6.64494 15.0782 7.03492 14.9953 7.3948 14.8299C7.75474 14.6646 8.06657 14.4398 8.33061 14.1555C8.59452 13.8714 8.80297 13.5373 8.95595 13.1532C9.10894 12.7691 9.1854 12.3616 9.1854 11.9307C9.1854 11.6498 9.15231 11.3875 9.08638 11.1439C9.02032 10.9003 8.91837 10.6881 8.78047 10.5069C8.64243 10.3258 8.46851 10.1823 8.25863 10.0761ZM11.9474 9.31565L12.1523 8.41824H10.8163L10.6114 9.31565H11.9474ZM13.8807 13.8888C13.7085 13.8888 13.5732 13.8633 13.475 13.812C13.3765 13.7609 13.3074 13.6888 13.2675 13.596C13.2274 13.5033 13.2122 13.3929 13.2214 13.2648C13.2306 13.1369 13.2537 12.9993 13.2906 12.852L13.6963 11.0856H15.2178L15.4945 9.91432H13.9637L14.3141 8.42624L12.8848 8.65669L11.9811 12.6312C11.9073 12.9576 11.8642 13.2681 11.852 13.5624C11.8396 13.8569 11.8827 14.1177 11.9811 14.3448C12.0794 14.5721 12.2453 14.7513 12.4791 14.8824C12.7126 15.0135 13.0415 15.0792 13.4658 15.0792C13.7608 15.0792 14.0159 15.0536 14.2311 15.0024C14.2534 14.9971 14.2871 14.9886 14.309 14.9831L14.5873 13.7714C14.4938 13.8046 14.4 13.8268 14.3095 13.8456C14.1712 13.8744 14.0283 13.8888 13.8807 13.8888ZM30.1144 9.91593H28.7785L28.0013 13.3196H28.0027L27.8959 13.7878C27.8214 13.8096 27.7472 13.8292 27.6735 13.8446C27.5352 13.8733 27.3922 13.8878 27.2447 13.8878C27.0725 13.8878 26.9372 13.8622 26.8389 13.8109C26.7405 13.7598 26.6714 13.6878 26.6314 13.5949C26.5914 13.5022 26.5761 13.3918 26.5854 13.2637C26.5946 13.1358 26.6176 12.9982 26.6545 12.8509L27.0602 11.0845L27.3277 9.91324L27.3277 9.91289H25.9629L25.3451 12.6302C25.2713 12.9566 25.2282 13.267 25.216 13.5614C25.2036 13.8558 25.2467 14.1167 25.3451 14.3437C25.4433 14.571 25.6093 14.7503 25.843 14.8814C26.0766 15.0125 26.4055 15.0782 26.8297 15.0782C27.1248 15.0782 27.3799 15.0526 27.5951 15.0014C27.6038 14.9993 27.6122 14.9971 27.6207 14.9949L27.6201 14.9975C27.5602 15.2778 27.4391 15.5051 27.2448 15.6826C27.0502 15.8602 26.7615 15.949 26.3786 15.949C26.2152 15.949 26.0667 15.9389 25.9321 15.9195L25.6691 17.0713C25.847 17.0953 26.0442 17.1076 26.2619 17.1076C26.6688 17.1076 27.0249 17.0592 27.3301 16.9627C27.6352 16.8661 27.8969 16.7198 28.1153 16.5235C28.3337 16.3273 28.5162 16.0812 28.6628 15.7855C28.8094 15.4895 28.9276 15.1393 29.0173 14.7342L29.9418 10.6883L29.9385 10.6868L30.1144 9.91593ZM23.5614 11.0855C22.9384 11.0855 22.8195 11.0855 22.5642 11.2234C22.383 11.3212 22.233 11.4682 22.1013 11.6397C21.9695 11.8113 21.8662 12.0093 21.7913 12.2338C21.7163 12.4584 21.6789 12.6923 21.6789 12.9356C21.6789 13.2349 21.7268 13.4721 21.8228 13.6467C21.9185 13.8214 22.0953 13.9086 22.353 13.9086C22.4908 13.9086 22.6151 13.8806 22.726 13.8244C22.8368 13.7683 22.9552 13.6747 23.081 13.5437C23.0929 13.3879 23.1124 13.2242 23.1394 13.0525C23.164 12.8959 23.1947 12.7497 23.2227 12.6161L23.2227 12.6161L23.2227 12.616L23.2227 12.6159L23.2227 12.6158L23.2227 12.6158L23.2306 12.5784L23.5614 11.0855ZM24.51 12.8233C24.426 13.1789 24.4021 13.5359 24.438 13.8946C24.474 14.2534 24.6058 14.803 24.7344 15.0782H23.4415C23.3238 14.871 23.2977 14.7458 23.2797 14.6592L23.2797 14.6592C23.2736 14.6296 23.2684 14.6046 23.2607 14.5823C23.0929 14.7258 22.9072 14.8443 22.7036 14.9378C22.4998 15.0314 22.2721 15.0782 22.0204 15.0782C21.7209 15.0782 21.4647 15.0235 21.2521 14.9145C21.0393 14.8054 20.8656 14.6588 20.7308 14.4747C20.596 14.2908 20.4985 14.0756 20.4388 13.8291C20.3787 13.5828 20.3488 13.3192 20.3488 13.0385C20.3488 12.6081 20.4221 12.2027 20.569 11.8222C20.7158 11.4417 20.9195 11.1095 21.1802 10.8257C21.4408 10.5419 22.0698 9.91601 23.102 9.91601L25.1747 9.91594L24.51 12.8233ZM17.073 13.9287C16.9221 13.9287 16.7955 13.9162 16.6929 13.891L17.3399 11.0856C17.3399 11.0856 17.6691 11.0856 17.8672 11.0863C18.1507 11.0875 18.3517 11.1877 18.4664 11.3761C18.5809 11.5644 18.6382 11.7938 18.6382 12.0637C18.6382 12.3401 18.6004 12.5928 18.5251 12.8219C18.4496 13.0513 18.3442 13.2474 18.2085 13.4106C18.0728 13.574 17.9084 13.7012 17.7154 13.7921C17.5223 13.8832 17.3082 13.9287 17.073 13.9287ZM19.7601 13.2175C19.9049 12.8377 19.9773 12.4185 19.9773 11.96C19.9773 11.6775 19.9395 11.4123 19.8642 11.1641C19.7887 10.9162 19.6726 10.6995 19.5159 10.5142C19.3589 10.329 19.1585 10.1831 18.9142 10.0762C18.6699 9.96952 18.3788 9.91609 18.0411 9.91609L17.5761 9.91607L16.2568 9.91609L14.7025 16.7262H16.0415L16.4487 15.0213C16.6537 15.059 16.8588 15.0779 17.0639 15.0779C17.4861 15.0779 17.8767 15.0009 18.2356 14.8471C18.5944 14.6933 18.902 14.4783 19.1585 14.2018C19.4148 13.9257 19.6154 13.5976 19.7601 13.2175ZM9.29352 15.0792L10.473 9.91296H11.809L10.6296 15.0792H9.29352Z" fill="#002855"/>
</svg>
