<svg width="46" height="32" viewBox="0 0 46 32" fill="none" xmlns="http://www.w3.org/2000/svg">
<rect x="0.5" y="0.5" width="45" height="31" rx="3.5" fill="white"/>
<rect x="0.5" y="0.5" width="45" height="31" rx="3.5" stroke="#EFEFEF"/>
<path fill-rule="evenodd" clip-rule="evenodd" d="M8.24155 10.3237C7.43777 10.325 6.78745 10.9177 6.78589 11.6502V11.6502V20.4569V20.4569C6.7859 20.4626 6.78595 20.4684 6.78604 20.474C6.78595 20.4683 6.7859 20.4626 6.78589 20.4569M6.81592 20.7241C6.95242 21.3281 7.53823 21.7822 8.24155 21.7834H23.3871V21.7834H8.24155C7.53824 21.7822 6.95243 21.3281 6.81592 20.7241ZM23.3871 10.3237V10.3237H8.24155M8.24155 9.33331H37.2278C38.632 9.33353 39.7697 10.3701 39.7702 11.6502V20.4569C39.7697 21.7366 38.632 22.7732 37.2278 22.7737H8.24155C6.83724 22.7732 5.6997 21.7366 5.69922 20.4569V11.6502C5.6997 10.3701 6.83724 9.33353 8.24155 9.33331Z" fill="#0F3365"/>
<path fill-rule="evenodd" clip-rule="evenodd" d="M25.8658 19.0163H24.5942V14.3094H25.767V14.9147H25.7812C26.0355 14.4447 26.5726 14.2322 27.152 14.2322C28.1695 14.2322 28.7272 15.1144 28.7272 15.9255C28.7272 16.9172 28.1408 17.7414 27.0458 17.7414C26.6008 17.7414 26.1203 17.5935 25.88 17.1943H25.8658V19.0163ZM26.6434 16.8528C27.1235 16.8528 27.4133 16.486 27.4133 15.9514C27.4133 15.5069 27.1377 15.1207 26.6434 15.1207C26.1768 15.1207 25.8657 15.4943 25.8657 15.9964C25.8657 16.486 26.2193 16.8528 26.6434 16.8528ZM33.5998 19.0163C33.8614 19.068 34.1226 19.0938 34.3912 19.0938C35.4911 19.0938 35.7984 18.3658 36.132 17.5757L36.1321 17.5755C36.1521 17.5281 36.1722 17.4804 36.1926 17.4327L37.5423 14.3094H36.2706L35.5144 16.4986H35.5003L34.7089 14.3094H33.3388L34.8288 17.7414C34.7376 18.0376 34.4972 18.2051 34.1868 18.2051C34.0097 18.2051 33.8541 18.1861 33.6849 18.1341L33.5998 19.0163ZM33.1258 17.7732C33.0694 17.5093 33.055 17.2454 33.055 16.9813V15.7321C33.055 14.7083 32.2427 14.3415 31.303 14.3415C30.7587 14.3415 30.2855 14.412 29.8334 14.5797L29.8543 15.3652C30.2079 15.185 30.6175 15.1141 31.0271 15.1141C31.4865 15.1141 31.8612 15.2364 31.8681 15.6937C31.7057 15.6677 31.4798 15.6482 31.2748 15.6482C30.5965 15.6482 29.3743 15.771 29.3743 16.7947C29.3743 17.5225 30.0242 17.8509 30.752 17.8509C31.2748 17.8509 31.6281 17.6638 31.9176 17.2454H31.9314C31.9314 17.3475 31.9389 17.4497 31.9464 17.553L31.9464 17.5531V17.5531C31.9517 17.6257 31.9571 17.699 31.9599 17.7732H33.1258ZM30.561 16.7111C30.561 16.3891 30.9 16.2668 31.3311 16.2668C31.4662 16.2668 31.5978 16.2732 31.7207 16.2793C31.7714 16.2817 31.8207 16.2841 31.8681 16.286C31.8681 16.6786 31.5645 17.0784 31.0837 17.0784C30.7871 17.0784 30.561 16.9426 30.561 16.7111Z" fill="#FFFFFE"/>
<path fill-rule="evenodd" clip-rule="evenodd" d="M13.5424 17.6639H14.8141V14.3094H13.5424V17.6639ZM13.5424 13.762H14.8141V12.912H13.5424V13.762ZM17.9242 14.2322C18.0724 14.2322 18.2278 14.2515 18.355 14.2705L18.2913 15.2364C18.1502 15.1979 18.0088 15.1979 17.8606 15.1979C17.2672 15.1979 16.935 15.5907 16.935 16.2477V17.6639H15.6633V14.3094H16.8221V14.9274H16.836C17.0551 14.5026 17.3731 14.2322 17.9242 14.2322ZM22.6852 15.9901C22.6852 17.0977 21.7596 17.7414 20.5447 17.7414C19.3296 17.7414 18.4039 17.0977 18.4039 15.9901C18.4039 14.8759 19.3296 14.2322 20.5447 14.2322C21.7596 14.2322 22.6852 14.8759 22.6852 15.9901ZM19.7181 15.9901C19.7181 16.486 19.9582 16.93 20.5447 16.93C21.131 16.93 21.3713 16.486 21.3713 15.9901C21.3713 15.4878 21.131 15.0435 20.5447 15.0435C19.9582 15.0435 19.7181 15.4878 19.7181 15.9901ZM11.5131 14.3094H12.6649V17.2715C12.6649 18.6493 11.9302 19.0938 10.4465 19.0938C9.83898 19.0938 9.33732 18.9776 9.04048 18.8814L9.10423 17.9669C9.49271 18.1408 9.81769 18.2437 10.3476 18.2437C11.0825 18.2437 11.4779 17.9283 11.4779 17.2715V17.0909H11.4636C11.1601 17.4841 10.7362 17.6639 10.2276 17.6639C9.21717 17.6639 8.58838 16.9691 8.58838 15.9771C8.58838 14.9789 9.10423 14.2322 10.2486 14.2322C10.7925 14.2322 11.2307 14.5026 11.4992 14.9145H11.5131V14.3094ZM10.6232 15.1208C10.1498 15.1208 9.90252 15.5007 9.90252 15.9577C9.90252 16.4791 10.2417 16.7756 10.6232 16.7756C11.0752 16.7756 11.4356 16.4279 11.4356 15.9126C11.4356 15.5389 11.1953 15.1208 10.6232 15.1208Z" fill="#D8232A"/>
</svg>
