<svg width="46" height="32" viewBox="0 0 46 32" fill="none" xmlns="http://www.w3.org/2000/svg">
<rect x="0.5" y="0.5" width="45" height="31" rx="3.5" fill="white"/>
<rect x="0.5" y="0.5" width="45" height="31" rx="3.5" stroke="#EFEFEF"/>
<path fill-rule="evenodd" clip-rule="evenodd" d="M19.3429 14.2081H13.5028H13.4057C13.8517 8.47212 16.1817 6.73702 22.2511 6.66727C22.3445 6.66669 22.4354 6.66669 22.5276 6.66669H22.6917C22.7842 6.66669 22.8748 6.66669 22.9685 6.66727C23.7372 6.67609 24.4454 6.71191 25.0981 6.77873C25.0502 6.78034 25.0034 6.78196 24.9507 6.78769C24.9018 6.79253 24.8406 6.79618 24.7683 6.80048C24.0501 6.84318 22.2391 6.95089 20.5821 8.95259C19.6025 10.1372 19.5055 14.2081 19.5055 14.2081H19.3429ZM18.9107 21.1879C18.226 22.0442 17.2403 21.9867 17.2265 21.9858V25.4664C14.7877 24.4818 13.6884 22.4288 13.4018 18.6434C13.3671 18.1873 13.3464 17.7864 13.3335 17.4542L19.5056 17.4519L19.5015 17.8193L19.5015 17.82L19.5015 17.821C19.4942 18.4563 19.4801 19.688 19.4817 19.7291C19.4864 19.9099 19.4407 20.5259 18.9107 21.1879ZM27.0521 7.12262C30.1536 7.94861 31.4969 10.0129 31.8176 14.2538C31.9175 15.5709 31.906 16.4483 31.906 16.4483C31.906 16.4483 31.9176 17.3262 31.8178 18.6432C31.3812 24.4159 29.0539 26.1597 22.9686 26.2297C22.8749 26.2303 22.3447 26.2303 22.2513 26.2297C21.1957 26.2174 20.2567 26.1535 19.4176 26.0287C19.4212 26.0286 19.4249 26.0286 19.4285 26.0286C19.4542 26.0283 19.4794 26.0281 19.5056 26.0263C20.6066 25.9632 22.1395 25.114 23.0518 23.1385C23.4504 22.2746 23.5574 20.7325 23.5574 20.7325V17.4526H23.5577V17.4517H26.8908H27.0524V14.2078H26.8908H23.558C23.558 14.2078 23.558 14.2074 23.5577 14.2072C23.5577 14.2072 23.5563 14.2038 23.5551 14.1977L23.5542 14.1934C23.5533 14.1908 23.5526 14.188 23.5518 14.1849C23.5508 14.1811 23.5497 14.1767 23.548 14.1714C23.5479 14.1703 23.5477 14.1689 23.5474 14.1674C23.5471 14.1653 23.5467 14.1631 23.5466 14.1611C23.5441 14.1517 23.5419 14.1426 23.5401 14.1301C23.5392 14.127 23.5387 14.1234 23.5382 14.1196C23.5378 14.1171 23.5375 14.1146 23.537 14.1122C23.5347 14.1 23.5328 14.0877 23.5308 14.0731C23.5294 14.0674 23.529 14.0603 23.5285 14.0536C23.5284 14.0521 23.5283 14.0505 23.5282 14.0491C23.5259 14.0336 23.5242 14.019 23.5223 14.0013C23.5221 13.9977 23.5219 13.9939 23.5218 13.9901C23.5216 13.9845 23.5214 13.9787 23.5209 13.9734C23.5206 13.9697 23.5204 13.9661 23.5201 13.9624C23.5192 13.9474 23.5182 13.9323 23.5179 13.9154C23.5178 13.9104 23.5178 13.9051 23.5178 13.8998C23.5178 13.8945 23.5178 13.8892 23.5176 13.8842C23.5176 13.8768 23.5175 13.8695 23.5173 13.8622C23.517 13.8473 23.5167 13.8322 23.5176 13.8159C23.5176 13.8102 23.518 13.8041 23.5184 13.7979C23.5187 13.7932 23.519 13.7884 23.5191 13.7837C23.5197 13.7577 23.5207 13.7319 23.5235 13.7031C23.5238 13.6989 23.5243 13.6945 23.5248 13.69C23.5253 13.6851 23.5258 13.6802 23.5261 13.6753C23.5289 13.6439 23.5326 13.6122 23.5375 13.5784C23.5378 13.5752 23.5384 13.5719 23.539 13.5686C23.5396 13.5654 23.5403 13.5622 23.5405 13.5592C23.5464 13.521 23.5527 13.4822 23.5611 13.4414C23.5611 13.4405 23.5614 13.4392 23.5617 13.4379C23.6207 13.1543 23.7473 12.8053 24.0009 12.4098C24.6828 11.3488 26.6194 11.3987 26.9908 11.4184C27.0297 11.4207 27.0516 11.4223 27.0521 11.4223V7.12262ZM19.2944 26.0084C19.2966 26.0085 19.2988 26.0085 19.3011 26.0086C19.2988 26.0085 19.2966 26.0085 19.2944 26.0084H19.2944Z" fill="#659AD2"/>
</svg>
