<svg width="58" height="40" viewBox="0 0 58 40" fill="none" xmlns="http://www.w3.org/2000/svg">
<rect x="0.5" y="0.5" width="57" height="39" rx="5.5" fill="#1F72CD"/>
<rect x="0.5" y="0.5" width="57" height="39" rx="5.5" stroke="#EFEFEF"/>
<path fill-rule="evenodd" clip-rule="evenodd" d="M10.1588 14.1666L4.85693 26.2445H11.204L11.9908 24.3188H13.7894L14.5763 26.2445H21.5626V24.7748L22.1851 26.2445H25.799L26.4215 24.7437V26.2445H40.9512L42.7179 24.3688L44.3722 26.2445L51.835 26.2601L46.5164 20.2393L51.835 14.1666H44.488L42.7682 16.0077L41.1659 14.1666H25.3596L24.0023 17.284L22.6131 14.1666H16.2793V15.5864L15.5747 14.1666H10.1588ZM11.3869 15.8817H14.4808L17.9975 24.0718V15.8817H21.3867L24.1029 21.754L26.6063 15.8817H29.9785V24.5484H27.9266L27.9098 17.7572L24.9183 24.5484H23.0827L20.0745 17.7572V24.5484H15.8531L15.0529 22.6054H10.7292L9.93061 24.5467H7.66887L11.3869 15.8817ZM40.1995 15.8817H31.8558V24.5433H40.0703L42.7179 21.6727L45.2698 24.5433H47.9375L44.0601 20.2376L47.9375 15.8817H45.3856L42.7514 18.7193L40.1995 15.8817ZM12.892 17.3481L11.4675 20.8093H14.3148L12.892 17.3481ZM33.9163 19.2582V17.6761V17.6746H39.1224L41.3941 20.2048L39.0218 22.7488H33.9163V21.0216H38.4681V19.2582H33.9163Z" fill="white"/>
</svg>
